Coordinates
version=1
nRows=17
nColumns=36
inDegrees=yes

Units are S.I. units (second, meters, Newtons, ...)
If the header above contains a line with 'inDegrees', this indicates whether rotational values are in degrees (yes) or radians (no).

endheader
time	pelvis_tilt	pelvis_list	pelvis_rotation	pelvis_tx	pelvis_ty	pelvis_tz	hip_flexion_r	hip_adduction_r	hip_rotation_r	knee_angle_r	knee_angle_r_beta	ankle_angle_r	subtalar_angle_r	mtp_angle_r	hip_flexion_l	hip_adduction_l	hip_rotation_l	knee_angle_l	knee_angle_l_beta	ankle_angle_l	subtalar_angle_l	mtp_angle_l	lumbar_extension	lumbar_bending	lumbar_rotation	arm_flex_r	arm_add_r	arm_rot_r	elbow_flex_r	pro_sup_r	arm_flex_l	arm_add_l	arm_rot_l	elbow_flex_l	pro_sup_l
      1.06666670	      1.22000303	      0.68819034	     11.18944453	     -0.04928753	      0.99657921	      0.27546182	     -2.41651277	     -2.93496194	     -8.64266378	      6.29740888	      0.10991052	      8.86256341	     -4.56148542	     -7.49998585	     -3.25389221	     -1.68872129	    -18.55748990	      4.59290954	      0.08016139	      9.12546636	      3.70696660	     -7.49998585	     -7.78755806	     -1.25459023	     -5.77798837	     21.43076034	    -41.33697743	     72.29824751	     72.61182305	     91.84132451	    -17.94829810	    -46.70909344	     37.32373173	     87.83712265	     83.89857622
      1.08333330	      1.23341150	      0.68574057	     11.18808816	     -0.04955766	      0.99645408	      0.27549496	     -2.49222985	     -2.90979843	     -8.64580896	      6.27676512	      0.10955022	      8.84960084	     -4.58852625	     -7.49998723	     -3.29822026	     -1.71958781	    -18.69096218	      4.59647694	      0.08022366	      9.28002423	      3.95932077	     -7.49998723	     -7.76195376	     -1.29209623	     -5.73975716	     21.28911766	    -41.43031375	     72.31880639	     72.75639572	     90.95206862	    -17.92788831	    -46.89435758	     37.53266413	     88.06393543	     83.16694701
      1.10000000	      1.23322813	      0.68683894	     11.17462990	     -0.05783954	      0.99673251	      0.27254895	     -2.47990142	     -2.91397551	     -8.64594123	      6.27063168	      0.10944317	      8.84926341	     -4.58876793	     -7.49998723	     -3.27673424	     -1.70325003	    -18.69429153	      4.58986413	      0.08010824	      9.28212194	      3.95984481	     -7.49998723	     -7.75456358	     -1.29623273	     -5.73412937	     21.28449964	    -41.42647858	     72.32163981	     72.75888736	     90.95314529	    -17.93554390	    -46.90148765	     37.53356986	     88.06178021	     83.16764865
      1.11666670	      1.19603953	      0.66106564	     11.26034548	     -0.04958904	      1.00297300	      0.27520817	     -2.45882579	     -2.88954795	     -8.70102486	      6.29693699	      0.10990228	      8.84942612	     -4.62560412	     -7.49998726	     -3.23202624	     -1.73927027	    -18.72115646	      4.59911658	      0.08026973	      9.32224898	      3.94121409	     -7.49998726	     -7.75324247	     -1.27961967	     -5.75151753	     21.25503769	    -41.45515670	     72.34669455	     72.75420158	     90.95914135	    -17.95408443	    -46.92738590	     37.53263421	     88.06528286	     83.17299246
      1.13333330	      1.21232911	      0.65975862	     11.35346822	     -0.04944811	      1.00324803	      0.27506406	     -2.60078556	     -2.86284317	     -8.75681886	      6.17655484	      0.10780122	      8.77588372	     -4.73178904	     -7.49998820	     -3.28674685	     -1.75910258	    -18.63171468	      4.57678279	      0.07987993	      9.17220273	      3.84864581	     -7.49998820	     -7.71297756	     -1.29665439	     -5.80974597	     21.13119873	    -41.38102940	     72.24380084	     72.66104488	     90.26777091	    -17.91425406	    -47.03224109	     37.66432666	     88.16520141	     82.58858780
      1.15000000	      1.16659630	      0.67776865	     11.38240010	     -0.05091965	      0.99979442	      0.26898144	     -2.57867441	     -2.92234076	     -8.77184076	      6.17935128	      0.10785003	      8.79584212	     -4.75895895	     -7.49998822	     -3.26974488	     -1.70481885	    -18.65489140	      4.59969496	      0.08027982	      9.18031698	      3.85662250	     -7.49998822	     -7.67703913	     -1.27829349	     -5.81839721	     21.12209135	    -41.37565425	     72.26815227	     72.66697920	     90.27545552	    -17.91881429	    -47.04051889	     37.67455250	     88.16286158	     82.59693018
      1.16666670	      1.18021562	      0.66568840	     11.40266361	     -0.04233116	      1.00031955	      0.27189789	     -2.73394063	     -2.88968336	     -8.69109947	      6.07353067	      0.10600311	      8.81305608	     -4.89476671	     -7.49999063	     -3.42838630	     -1.70252910	    -18.68696262	      4.46996801	      0.07801566	      9.24794707	      4.15326166	     -7.49999063	     -7.43228131	     -1.26754875	     -5.99440300	     21.45851764	    -41.33120593	     72.88994939	     72.48108146	     93.78603069	    -17.93734081	    -47.01017047	     37.80570222	     87.95377587	     85.29808777
      1.18333330	      1.26343276	      0.69547346	     11.40212445	     -0.04271031	      1.00343452	      0.27200931	     -2.93658866	     -2.88465538	     -8.54435838	      5.97870126	      0.10434802	      8.75938402	     -5.04987826	     -7.49999249	     -3.60963148	     -1.66741317	    -18.53955733	      4.38960655	      0.07661309	      9.08907410	      3.92820076	     -7.49999249	     -7.44498604	     -1.31220370	     -5.85498882	     20.76505863	    -41.29416768	     71.99379694	     72.26597159	     90.49167987	    -17.84563659	    -47.03314003	     37.99494200	     87.94881601	     82.39400560
      1.20000000	      1.26100457	      0.70755366	     11.40947798	     -0.05020570	      1.00031350	      0.27535583	     -2.89868799	     -2.88031882	     -8.53114905	      6.05314496	      0.10564731	      8.75491068	     -5.03855158	     -7.49999250	     -3.56002270	     -1.67598362	    -18.50870641	      4.49020384	      0.07836884	      9.08558049	      3.92269503	     -7.49999250	     -7.43520618	     -1.30680624	     -5.85833494	     20.75805981	    -41.29950797	     71.99712438	     72.26704945	     90.46865585	    -17.84792313	    -47.03436690	     37.99610072	     87.94522873	     82.37964216
      1.21666670	      1.20137444	      0.70122853	     11.42728393	     -0.05032825	      1.00605389	      0.27514856	     -2.84507817	     -2.86516801	     -8.42374969	      6.01247752	      0.10493753	      8.85298152	     -4.97455731	     -7.49999252	     -3.48765953	     -1.68891665	    -18.49487318	      4.49436279	      0.07844143	      9.21430492	      3.93252777	     -7.49999252	     -7.42028330	     -1.35402051	     -5.90206233	     20.78796985	    -41.27793445	     72.02371953	     72.29926056	     90.48530092	    -17.75916397	    -47.19777805	     37.95393503	     87.97726644	     82.39650218
      1.23333330	      1.34901977	      0.74719081	     11.49151789	     -0.05047757	      1.00618275	      0.27522833	     -2.97979394	     -2.86792281	     -8.50091906	      6.04480224	      0.10550170	      9.11360447	     -4.56020576	     -7.49999379	     -3.63341396	     -1.69171085	    -18.43291168	      4.52892046	      0.07904457	      9.26288626	      4.05970447	     -7.49999379	     -7.58025704	     -1.40834141	     -5.88858609	     20.76180928	    -41.14255021	     72.14918831	     72.08250148	     88.16928230	    -17.40822874	    -47.48103784	     38.50269374	     88.20270759	     80.72751163
      1.25000000	      1.30021063	      0.78842916	     11.51195388	     -0.05896455	      1.00272312	      0.27245269	     -2.81774387	     -2.92769717	     -8.46716520	      6.07511852	      0.10603082	      9.09324974	     -4.52791474	     -7.49999380	     -3.48190740	     -1.63386909	    -18.43285198	      4.60844692	      0.08043257	      9.27312614	      4.07298845	     -7.49999380	     -7.67555314	     -1.38904271	     -5.90052359	     20.80771977	    -41.10742069	     72.15911926	     72.11152518	     88.17690728	    -17.32983393	    -47.55639126	     38.46522321	     88.20471190	     80.73603057
      1.26666670	      1.32486691	      0.79304987	     11.53439471	     -0.05013521	      1.00269614	      0.27517687	     -2.80426941	     -2.92095753	     -8.46520191	      6.07750549	      0.10607248	      9.09136289	     -4.52535806	     -7.49999380	     -3.49621382	     -1.64122891	    -18.43213052	      4.61647788	      0.08057274	      9.27312887	      4.07350763	     -7.49999380	     -7.68614638	     -1.38599095	     -5.90651591	     20.81470655	    -41.11151571	     72.15765988	     72.11142713	     88.17840647	    -17.31891810	    -47.55516960	     38.46156350	     88.20746378	     80.73724969
      1.28333330	      1.22245249	      0.77673248	     11.46350899	     -0.05012972	      1.00550032	      0.27531288	     -2.59046836	     -2.92277920	     -8.33011651	      6.12595178	      0.10691803	      9.09620485	     -4.30162982	     -7.49999508	     -3.31788866	     -1.67851217	    -18.65157098	      4.74328392	      0.08278592	      9.34834779	      4.31631095	     -7.49999508	     -7.70798642	     -1.43427256	     -6.00380101	     21.50955868	    -41.03909262	     72.89224463	     72.09892589	     93.59471120	    -17.31716453	    -47.55091589	     38.11716970	     88.22959847	     85.21739308
      1.30000000	      1.17105701	      0.82773503	     11.52321980	     -0.05901415	      0.99917725	      0.27263365	     -2.37327991	     -3.00739814	     -8.33039596	      6.26372931	      0.10932270	      9.13692745	     -4.21900093	     -7.49999721	     -3.15995035	     -1.61525284	    -18.60096439	      4.85967168	      0.08481727	      9.37361704	      4.32453004	     -7.49999721	     -7.93188761	     -1.49516072	     -6.16758283	     21.67411033	    -41.04185653	     72.76527914	     72.35420852	     94.46616747	    -17.79658892	    -47.57959797	     37.15403281	     88.56104398	     85.51292751
      1.31666670	      1.13509635	      0.86163399	     11.50376857	     -0.05844961	      1.00200895	      0.27248014	     -2.19559699	     -3.06856633	     -8.28771891	      6.34593169	      0.11075740	      9.10087830	     -4.08629629	     -7.49999780	     -2.98642029	     -1.59348936	    -18.69895305	      4.96315246	      0.08662335	      9.35028276	      4.33379236	     -7.49999780	     -8.07346864	     -1.53190478	     -6.03658203	     21.78642240	    -41.07632784	     72.90536146	     72.37489244	     93.45640390	    -17.48653734	    -47.69354812	     37.41979852	     88.64359691	     84.48547894
      1.33333330	      1.10737810	      0.83814464	     11.55328068	     -0.05122530	      1.00585415	      0.26909559	     -2.15187461	     -3.08072553	     -8.26872343	      6.32559678	      0.11040249	      9.10616688	     -4.07974522	     -7.49999781	     -2.97272720	     -1.58870330	    -18.70359607	      4.93478018	      0.08612816	      9.33684856	      4.34474296	     -7.49999781	     -8.14655545	     -1.49523006	     -6.02670870	     21.83818943	    -41.05812950	     72.88318585	     72.37100942	     93.46229956	    -17.43342665	    -47.61591051	     37.40595517	     88.67349824	     84.48935063
